PathFileType	4	(X/Y/Z)	RBDS018\RBDS018runT45.trc
DataRate	CameraRate	NumFrames	NumMarkers	Units	OrigDataRate	OrigDataStartFrame	OrigNumFrames
150.000000	150.000000	4	33	mm	150.000000	2812	4500
Frame#	Time	L.ASIS			L.Heel.Bottom			L.Heel.Lateral			L.Heel.Top			L.Iliac.Crest			L.MT1			L.MT5			L.PSIS			L.Shank.Bottom.Lateral			L.Shank.Bottom.Medial			L.Shank.Top.Lateral			L.Shank.Top.Medial			L.Thigh.Bottom.Lateral			L.Thigh.Bottom.Medial			L.Thigh.Top.Lateral			L.Thigh.Top.Medial			R.ASIS			R.ASY			R.Heel.Bottom			R.Heel.Lateral			R.Heel.Top			R.Iliac.Crest			R.MT1			R.MT5			R.PSIS			R.Shank.Bottom.Lateral			R.Shank.Bottom.Medial			R.Shank.Top.Lateral			R.Shank.Top.Medial			R.Thigh.Bottom.Lateral			R.Thigh.Bottom.Medial			R.Thigh.Top.Lateral			R.Thigh.Top.Medial			
		X1	Y1	Z1	X2	Y2	Z2	X3	Y3	Z3	X4	Y4	Z4	X5	Y5	Z5	X6	Y6	Z6	X7	Y7	Z7	X8	Y8	Z8	X9	Y9	Z9	X10	Y10	Z10	X11	Y11	Z11	X12	Y12	Z12	X13	Y13	Z13	X14	Y14	Z14	X15	Y15	Z15	X16	Y16	Z16	X17	Y17	Z17	X18	Y18	Z18	X19	Y19	Z19	X20	Y20	Z20	X21	Y21	Z21	X22	Y22	Z22	X23	Y23	Z23	X24	Y24	Z24	X25	Y25	Z25	X26	Y26	Z26	X27	Y27	Z27	X28	Y28	Z28	X29	Y29	Z29	X30	Y30	Z30	X31	Y31	Z31	X32	Y32	Z32	X33	Y33	Z33	

2813	18.74666666666667	2062.933631679916	976.7019019092206	919.9261336227627	1864.368275414449	37.60573895173638	1067.949027117538	1890.962363317245	45.66822473975986	1017.780118069212	1878.253420642982	86.40101255516826	1063.095479400975	1981.323711992687	1034.550782511287	894.1184162540984	2092.924675937352	38.82873529812947	1092.500501795876	2052.651778484597	42.84505036826136	980.5421616393503	1903.173244341318	997.2210876358021	1025.419514202673	1974.098965939613	170.2014016723399	966.2409979311786	1944.420284429714	193.9736780657075	1000.342736546324	1996.411493520056	240.4480118576755	931.1077603970618	1969.551997742182	268.640166762354	967.6157819515096	2076.202942853668	582.3626460729944	861.5269548936712	2030.472783280531	569.3412430215695	917.4424429351408	2032.601749323362	682.0591927011853	848.0684376360949	1987.409113077025	668.6147143105721	899.7818316536353	2114.224416595519	952.9486834511431	1145.17199343823	387179673289.4061	-340899186.1463144	-130152957.9066087	1744.323270906501	702.98091903872	1083.991599472726	1747.992373288115	675.5177370168041	1120.789097485173	1779.240246580636	667.4585930166962	1079.958965880748	2060.170943702061	1027.51378561745	1195.797593649713	1636.814939391938	505.9862943278793	1044.623011759895	1656.59808800145	527.5642428323107	1152.313124303541	1930.298986585123	991.3138285457451	1130.316553346805	1863.559390541951	571.6499930833977	1149.873646880141	1880.587756901961	613.8606126838018	1118.558627405659	1941.602298380433	551.1985211205121	1162.898406010692	1957.116326909539	592.0706247735546	1131.35663617367	2134.349110310943	545.28004787687	1193.045864485826	2072.631416972556	533.2611574759288	1158.457558009826	2100.405272191721	647.1747847534606	1218.006710005382	2039.816954193675	633.3609784528962	1190.056948401907	
2814	18.75333333333333	2059.777883327391	974.1301812404641	918.4185954241943	1834.117240003131	39.25074157387846	1068.302514738796	1860.586136073893	46.87067579341616	1017.968887363288	1848.188947661741	87.86874377076236	1063.116698515676	1978.618039569075	1032.40499266419	894.0370293507921	2062.42961126527	39.3178563919591	1092.283682887105	2022.076831605392	42.96473769744006	980.5788008079842	1900.980534181323	996.8660612586657	1025.62296743507	1946.47680385302	170.3687386542395	966.1371714450905	1917.879789742534	195.3907382203296	1000.272125404002	1971.509546322399	239.5691499794868	931.0071969237187	1945.831031693596	268.9622357960171	967.5508588389622	2062.430452277112	578.2744807866162	861.5590785427698	2016.615206693315	566.7819703677018	917.8855703471272	2021.830844817731	679.3176164160701	848.6409227771763	1976.597089713914	667.3332216716282	900.7987062422916	2112.343697652577	951.2227863897638	1144.05588301747	387672901743.6342	-341331037.4166239	-130318814.0939433	1755.251724431743	694.0754041472293	1087.320848497923	1760.231525803168	666.3574384343306	1123.898253429555	1791.748492837136	660.3234596357044	1082.760989479047	2057.94167877666	1026.228235506145	1195.734759953247	1657.568312427412	493.0024432528641	1044.485970055195	1675.973321069328	513.6590553168442	1152.681177044164	1928.22058791795	991.0372552451532	1130.324993354528	1880.760649229103	565.2546708246958	1152.04923918473	1896.58226257138	609.130638440831	1122.689004940207	1959.228900963712	547.3147952093708	1165.960866080474	1973.558911630022	589.7950981021337	1136.436900125067	2151.835647709803	550.3651860837268	1196.103540019885	2090.511690863822	534.390650198376	1162.240202106594	2112.393769528951	650.3983487495408	1220.519637003886	2052.258987555559	632.706199686192	1193.523146060299	
2815	18.76	2057.082935007141	972.4444811744402	917.123195523443	1803.82602225595	41.54260917987065	1068.289156626258	1830.211099445582	48.32521440550397	1017.798928682885	1818.215523862945	89.91920789411179	1062.501020018136	1976.385972170138	1031.775686980382	893.9675175254687	2031.875497327743	39.74852773856306	1091.868058137794	1991.458498264666	42.87811299376659	980.4155187153829	1899.189037747626	997.0240457709519	1025.505955490333	1918.60360543235	171.093568056922	965.6516693257043	1891.06152105366	197.2392109256511	999.819096673944	1946.142374280929	239.2422519218237	930.5744552471815	1921.594236958863	269.6986730349361	967.1472085070322	2048.374203230826	574.9677568340373	861.3952482565256	2002.139635799449	564.9980690405546	917.7607963919436	2011.166901944145	677.3974231280055	849.0834282135584	1965.630263135589	666.8996834103368	901.3767213723197	2110.605662580396	950.8169923538761	1143.130340313928	388166548902.7983	-341763253.2274786	-130484811.1184696	1764.50394395506	683.3221532599235	1089.956185970712	1771.006547452841	655.6163013719064	1126.425600098493	1802.800285796551	651.7497443478418	1085.138373748844	2055.844076658586	1026.175450664473	1195.552524840282	1678.603162607503	477.9058299759949	1044.213313099104	1695.424994544706	498.0447911559647	1152.859007586002	1926.290211491688	991.4555379709805	1130.041366988627	1896.839344604987	558.3539393097101	1153.860356709861	1910.982274442852	604.0547678945665	1126.621487384673	1975.752866608376	543.6375090506369	1168.733744495272	1988.428440954088	587.8716609047461	1141.419964075096	2168.926967039506	557.3552090143274	1198.729027354021	2108.289865406559	537.5874047523525	1165.397946974001	2124.063895517856	655.2561676467635	1222.737840053048	2064.698455238115	633.8882850808675	1196.399065905664	
2816	18.76666666666667	2055.021900797814	971.620229274546	916.0809564018275	1773.478344685539	44.51937573621776	1067.9945894952	1799.832332904223	50.17265406905071	1017.367717302715	1788.334880266437	92.61487615496193	1061.439343370503	1974.73264144985	1032.530863860733	893.8812802281359	2001.224223685607	40.06467125479091	1091.377526869984	1960.776081980847	42.65597722693826	980.1579001538555	1897.8859689292	997.6482267995407	1025.084142096024	1890.553920205921	172.5106805313478	964.9526219174328	1864.012463070576	199.640550939367	999.157077450196	1920.37182097748	239.6430866029433	929.9468816086771	1896.887307200433	271.006712141676	966.5498033613284	2034.110292203623	572.5374870602025	861.0781309196735	1987.137562320648	564.1167554511362	917.1205634555378	2000.690602703423	676.347913050403	849.3984818399873	1954.608102342637	667.3943092350361	901.5323259138656	2109.045008931293	951.7084149559412	1142.485595578932	388660614944.5439	-342195833.7326664	-130650949.0399564	1772.396211333641	670.6622403962298	1091.827843549333	1780.604676950023	643.2647800545088	1128.299721130365	1812.64324403315	641.6808445566072	1087.022371852757	2053.868341647878	1027.221446533371	1195.307447459007	1700.118688758754	460.9454976144283	1043.8673129519	1715.184490465224	480.9639508583501	1152.892824250701	1924.580216924923	992.4997924107583	1129.46854561565	1911.880630834708	551.0563376194783	1155.255800148376	1923.86969788165	598.5952600517514	1130.145286037652	1991.182475783442	540.2277058654707	1171.118764950495	2001.732783764298	586.2163199952276	1146.029544666128	2185.334529322042	566.0585437971051	1200.889219484294	2125.635786822069	542.7429366709517	1167.890446599244	2135.236242942548	661.6019610449648	1224.62594043448	2076.918996111212	636.8457477419925	1198.629067529726	
